<mxfile host="65bd71144e">
    <diagram id="QrWoiZ_82ivu-ppBThIU" name="ページ1">
        <mxGraphModel dx="1443" dy="728" grid="0" gridSize="10" guides="1" tooltips="1" connect="1" arrows="1" fold="1" page="1" pageScale="1" pageWidth="1600" pageHeight="1200" background="#ffffff" math="0" shadow="0">
            <root>
                <mxCell id="0"/>
                <mxCell id="1" parent="0"/>
                <mxCell id="184" value="" style="edgeStyle=none;html=1;" edge="1" parent="1" source="42" target="183">
                    <mxGeometry relative="1" as="geometry"/>
                </mxCell>
                <mxCell id="42" value="  AZ1" style="fillColor=none;strokeColor=#147EBA;dashed=1;verticalAlign=top;fontStyle=0;fontColor=#147EBA;container=0;align=left;" parent="1" vertex="1">
                    <mxGeometry x="529" y="272" width="655" height="224" as="geometry"/>
                </mxCell>
                <mxCell id="41" value="VPC" style="points=[[0,0],[0.25,0],[0.5,0],[0.75,0],[1,0],[1,0.25],[1,0.5],[1,0.75],[1,1],[0.75,1],[0.5,1],[0.25,1],[0,1],[0,0.75],[0,0.5],[0,0.25]];outlineConnect=0;gradientColor=none;html=1;whiteSpace=wrap;fontSize=12;fontStyle=0;container=0;pointerEvents=0;collapsible=0;recursiveResize=0;shape=mxgraph.aws4.group;grIcon=mxgraph.aws4.group_vpc;strokeColor=#248814;fillColor=none;verticalAlign=top;align=left;spacingLeft=30;fontColor=#AAB7B8;dashed=0;" parent="1" vertex="1">
                    <mxGeometry x="487" y="230" width="733" height="556" as="geometry"/>
                </mxCell>
                <mxCell id="43" value="Public subnet" style="points=[[0,0],[0.25,0],[0.5,0],[0.75,0],[1,0],[1,0.25],[1,0.5],[1,0.75],[1,1],[0.75,1],[0.5,1],[0.25,1],[0,1],[0,0.75],[0,0.5],[0,0.25]];outlineConnect=0;gradientColor=none;html=1;whiteSpace=wrap;fontSize=12;fontStyle=0;container=0;pointerEvents=0;collapsible=0;recursiveResize=0;shape=mxgraph.aws4.group;grIcon=mxgraph.aws4.group_security_group;grStroke=0;strokeColor=#248814;fillColor=#E9F3E6;verticalAlign=top;align=left;spacingLeft=30;fontColor=#248814;dashed=0;" parent="1" vertex="1">
                    <mxGeometry x="565" y="301" width="255" height="181" as="geometry"/>
                </mxCell>
                <mxCell id="116" style="edgeStyle=none;rounded=0;html=1;strokeColor=#000000;fontColor=#000000;dashed=1;dashPattern=12 12;fillColor=#60a917;" parent="1" target="131" edge="1">
                    <mxGeometry relative="1" as="geometry">
                        <mxPoint x="197" y="188" as="targetPoint"/>
                        <mxPoint x="463" y="347.5054054054053" as="sourcePoint"/>
                    </mxGeometry>
                </mxCell>
                <mxCell id="79" value="  AZ2" style="fillColor=none;strokeColor=#147EBA;dashed=1;verticalAlign=top;fontStyle=0;fontColor=#147EBA;container=0;align=left;" parent="1" vertex="1">
                    <mxGeometry x="528" y="517.5" width="658" height="233.5" as="geometry"/>
                </mxCell>
                <mxCell id="78" value="Private subnet" style="points=[[0,0],[0.25,0],[0.5,0],[0.75,0],[1,0],[1,0.25],[1,0.5],[1,0.75],[1,1],[0.75,1],[0.5,1],[0.25,1],[0,1],[0,0.75],[0,0.5],[0,0.25]];outlineConnect=0;gradientColor=none;html=1;whiteSpace=wrap;fontSize=12;fontStyle=0;container=0;pointerEvents=0;collapsible=0;recursiveResize=0;shape=mxgraph.aws4.group;grIcon=mxgraph.aws4.group_security_group;grStroke=0;strokeColor=#147EBA;fillColor=#E6F2F8;verticalAlign=top;align=left;spacingLeft=30;fontColor=#147EBA;dashed=0;" parent="1" vertex="1">
                    <mxGeometry x="856" y="546.5" width="303" height="185" as="geometry"/>
                </mxCell>
                <mxCell id="45" value="Private subnet" style="points=[[0,0],[0.25,0],[0.5,0],[0.75,0],[1,0],[1,0.25],[1,0.5],[1,0.75],[1,1],[0.75,1],[0.5,1],[0.25,1],[0,1],[0,0.75],[0,0.5],[0,0.25]];outlineConnect=0;gradientColor=none;html=1;whiteSpace=wrap;fontSize=12;fontStyle=0;container=0;pointerEvents=0;collapsible=0;recursiveResize=0;shape=mxgraph.aws4.group;grIcon=mxgraph.aws4.group_security_group;grStroke=0;strokeColor=#147EBA;fillColor=#E6F2F8;verticalAlign=top;align=left;spacingLeft=30;fontColor=#147EBA;dashed=0;" parent="1" vertex="1">
                    <mxGeometry x="856" y="301" width="302" height="185" as="geometry"/>
                </mxCell>
                <mxCell id="68" value="" style="rounded=1;arcSize=0;dashed=1;strokeColor=#F59D56;fillColor=none;gradientColor=none;dashPattern=8 4;strokeWidth=2;labelBackgroundColor=none;labelBorderColor=none;sketch=0;fontColor=#000066;container=0;" parent="1" vertex="1">
                    <mxGeometry x="896" y="330" width="225" height="383" as="geometry"/>
                </mxCell>
                <mxCell id="60" value="ECS Cluster" style="sketch=0;points=[[0,0,0],[0.25,0,0],[0.5,0,0],[0.75,0,0],[1,0,0],[0,1,0],[0.25,1,0],[0.5,1,0],[0.75,1,0],[1,1,0],[0,0.25,0],[0,0.5,0],[0,0.75,0],[1,0.25,0],[1,0.5,0],[1,0.75,0]];outlineConnect=0;fontColor=#232F3E;gradientColor=#F78E04;gradientDirection=north;fillColor=#D05C17;strokeColor=#ffffff;dashed=0;verticalLabelPosition=bottom;verticalAlign=top;align=center;html=1;fontSize=12;fontStyle=0;aspect=fixed;shape=mxgraph.aws4.resourceIcon;resIcon=mxgraph.aws4.fargate;labelBackgroundColor=none;labelBorderColor=none;container=0;" parent="1" vertex="1">
                    <mxGeometry x="894" y="329" width="45" height="46" as="geometry"/>
                </mxCell>
                <mxCell id="77" value="Public subnet" style="points=[[0,0],[0.25,0],[0.5,0],[0.75,0],[1,0],[1,0.25],[1,0.5],[1,0.75],[1,1],[0.75,1],[0.5,1],[0.25,1],[0,1],[0,0.75],[0,0.5],[0,0.25]];outlineConnect=0;gradientColor=none;html=1;whiteSpace=wrap;fontSize=12;fontStyle=0;container=0;pointerEvents=0;collapsible=0;recursiveResize=0;shape=mxgraph.aws4.group;grIcon=mxgraph.aws4.group_security_group;grStroke=0;strokeColor=#248814;fillColor=#E9F3E6;verticalAlign=top;align=left;spacingLeft=30;fontColor=#248814;dashed=0;" parent="1" vertex="1">
                    <mxGeometry x="564" y="546" width="257" height="185.5" as="geometry"/>
                </mxCell>
                <mxCell id="107" value="" style="edgeStyle=none;html=1;fontColor=#000066;" parent="1" source="85" target="43" edge="1">
                    <mxGeometry relative="1" as="geometry"/>
                </mxCell>
                <mxCell id="111" style="edgeStyle=none;rounded=0;html=1;exitX=0.5;exitY=1;exitDx=0;exitDy=0;exitPerimeter=0;strokeColor=#000000;fontColor=#000066;" parent="1" source="85" edge="1">
                    <mxGeometry relative="1" as="geometry">
                        <Array as="points">
                            <mxPoint x="697" y="609"/>
                        </Array>
                        <mxPoint x="982" y="607.9844827586205" as="targetPoint"/>
                    </mxGeometry>
                </mxCell>
                <mxCell id="112" style="edgeStyle=none;rounded=0;html=1;strokeColor=#000000;fontColor=#000066;exitX=0.5;exitY=0;exitDx=0;exitDy=0;exitPerimeter=0;" parent="1" source="85" target="133" edge="1">
                    <mxGeometry relative="1" as="geometry">
                        <Array as="points">
                            <mxPoint x="698" y="430"/>
                        </Array>
                        <mxPoint x="953" y="432" as="targetPoint"/>
                    </mxGeometry>
                </mxCell>
                <mxCell id="85" value="ALB" style="outlineConnect=0;dashed=0;verticalLabelPosition=bottom;verticalAlign=top;align=center;html=1;shape=mxgraph.aws3.application_load_balancer;fillColor=#F58534;gradientColor=none;labelBackgroundColor=none;labelBorderColor=none;sketch=0;strokeColor=#383838;fontColor=#000066;container=0;" parent="1" vertex="1">
                    <mxGeometry x="671" y="479" width="52" height="56" as="geometry"/>
                </mxCell>
                <mxCell id="121" style="edgeStyle=none;rounded=0;html=1;entryX=0;entryY=0.5;entryDx=0;entryDy=0;entryPerimeter=0;strokeColor=#000000;fontColor=#000000;endArrow=none;endFill=0;" parent="1" source="118" target="122" edge="1">
                    <mxGeometry relative="1" as="geometry"/>
                </mxCell>
                <mxCell id="118" value="User" style="sketch=0;outlineConnect=0;fontColor=#232F3E;gradientColor=none;fillColor=#232F3D;strokeColor=none;dashed=0;verticalLabelPosition=bottom;verticalAlign=top;align=center;html=1;fontSize=12;fontStyle=0;aspect=fixed;pointerEvents=1;shape=mxgraph.aws4.user;labelBackgroundColor=none;labelBorderColor=none;" parent="1" vertex="1">
                    <mxGeometry x="277" y="481.25" width="46" height="47" as="geometry"/>
                </mxCell>
                <mxCell id="124" value="AWS Cloud" style="points=[[0,0],[0.25,0],[0.5,0],[0.75,0],[1,0],[1,0.25],[1,0.5],[1,0.75],[1,1],[0.75,1],[0.5,1],[0.25,1],[0,1],[0,0.75],[0,0.5],[0,0.25]];outlineConnect=0;gradientColor=none;html=1;whiteSpace=wrap;fontSize=12;fontStyle=0;container=1;pointerEvents=0;collapsible=0;recursiveResize=0;shape=mxgraph.aws4.group;grIcon=mxgraph.aws4.group_aws_cloud_alt;strokeColor=#232F3E;fillColor=none;verticalAlign=top;align=left;spacingLeft=30;fontColor=#232F3E;dashed=0;labelBackgroundColor=none;labelBorderColor=none;sketch=0;" parent="1" vertex="1">
                    <mxGeometry x="381" y="202" width="952" height="609" as="geometry"/>
                </mxCell>
                <mxCell id="144" value="CloudWatch Logs" style="sketch=0;points=[[0,0,0],[0.25,0,0],[0.5,0,0],[0.75,0,0],[1,0,0],[0,1,0],[0.25,1,0],[0.5,1,0],[0.75,1,0],[1,1,0],[0,0.25,0],[0,0.5,0],[0,0.75,0],[1,0.25,0],[1,0.5,0],[1,0.75,0]];points=[[0,0,0],[0.25,0,0],[0.5,0,0],[0.75,0,0],[1,0,0],[0,1,0],[0.25,1,0],[0.5,1,0],[0.75,1,0],[1,1,0],[0,0.25,0],[0,0.5,0],[0,0.75,0],[1,0.25,0],[1,0.5,0],[1,0.75,0]];outlineConnect=0;fontColor=#232F3E;gradientColor=#F34482;gradientDirection=north;fillColor=#BC1356;strokeColor=#ffffff;dashed=0;verticalLabelPosition=bottom;verticalAlign=top;align=center;html=1;fontSize=12;fontStyle=0;aspect=fixed;shape=mxgraph.aws4.resourceIcon;resIcon=mxgraph.aws4.cloudwatch_2;" parent="124" vertex="1">
                    <mxGeometry x="871" y="146.34" width="41" height="42" as="geometry"/>
                </mxCell>
                <mxCell id="122" value="Route53" style="sketch=0;points=[[0,0,0],[0.25,0,0],[0.5,0,0],[0.75,0,0],[1,0,0],[0,1,0],[0.25,1,0],[0.5,1,0],[0.75,1,0],[1,1,0],[0,0.25,0],[0,0.5,0],[0,0.75,0],[1,0.25,0],[1,0.5,0],[1,0.75,0]];outlineConnect=0;fontColor=#232F3E;gradientColor=#945DF2;gradientDirection=north;fillColor=#5A30B5;strokeColor=#ffffff;dashed=0;verticalLabelPosition=bottom;verticalAlign=top;align=center;html=1;fontSize=12;fontStyle=0;aspect=fixed;shape=mxgraph.aws4.resourceIcon;resIcon=mxgraph.aws4.route_53;labelBackgroundColor=none;labelBorderColor=none;" parent="124" vertex="1">
                    <mxGeometry x="26.75" y="279.25" width="48.25" height="49.25" as="geometry"/>
                </mxCell>
                <mxCell id="114" style="edgeStyle=none;rounded=0;html=1;strokeColor=#000000;fontColor=#000066;dashed=1;dashPattern=8 8;fillColor=#60a917;" parent="124" edge="1">
                    <mxGeometry relative="1" as="geometry">
                        <mxPoint x="273" y="163.2696335078533" as="sourcePoint"/>
                        <mxPoint x="126" y="161.73036649214646" as="targetPoint"/>
                    </mxGeometry>
                </mxCell>
                <mxCell id="160" value="HTTPS" style="rounded=0;whiteSpace=wrap;html=1;fontSize=10;fillColor=#f5f5f5;strokeColor=#666666;fontColor=#333333;" parent="124" vertex="1">
                    <mxGeometry x="192" y="294.13" width="40" height="21.5" as="geometry"/>
                </mxCell>
                <mxCell id="161" value="" style="edgeStyle=none;rounded=0;html=1;strokeColor=#000000;fontColor=#000000;endArrow=none;endFill=1;exitX=1;exitY=0.5;exitDx=0;exitDy=0;exitPerimeter=0;" parent="124" source="122" target="160" edge="1">
                    <mxGeometry relative="1" as="geometry">
                        <mxPoint x="75" y="303.875" as="sourcePoint"/>
                        <mxPoint x="290" y="304.87863070539424" as="targetPoint"/>
                    </mxGeometry>
                </mxCell>
                <mxCell id="174" value="" style="rounded=1;arcSize=16;dashed=1;strokeColor=#F59D56;fillColor=none;gradientColor=none;dashPattern=8 4;strokeWidth=2;labelBackgroundColor=none;labelBorderColor=none;sketch=0;fontColor=#000066;container=0;" parent="124" vertex="1">
                    <mxGeometry x="583" y="370" width="121" height="122" as="geometry"/>
                </mxCell>
                <mxCell id="175" value="Fluent Bit" style="sketch=0;outlineConnect=0;fontColor=#232F3E;gradientColor=none;fillColor=#D45B07;strokeColor=none;dashed=0;verticalLabelPosition=bottom;verticalAlign=top;align=center;html=1;fontSize=12;fontStyle=0;aspect=fixed;pointerEvents=1;shape=mxgraph.aws4.container_1;" parent="124" vertex="1">
                    <mxGeometry x="659" y="435" width="26" height="17.44" as="geometry"/>
                </mxCell>
                <mxCell id="176" value="NGINX" style="sketch=0;outlineConnect=0;fontColor=#232F3E;gradientColor=none;fillColor=#D45B07;strokeColor=none;dashed=0;verticalLabelPosition=bottom;verticalAlign=top;align=center;html=1;fontSize=12;fontStyle=0;aspect=fixed;pointerEvents=1;shape=mxgraph.aws4.container_1;" parent="124" vertex="1">
                    <mxGeometry x="600" y="394" width="39" height="25.83" as="geometry"/>
                </mxCell>
                <mxCell id="177" value="ACM" style="sketch=0;points=[[0,0,0],[0.25,0,0],[0.5,0,0],[0.75,0,0],[1,0,0],[0,1,0],[0.25,1,0],[0.5,1,0],[0.75,1,0],[1,1,0],[0,0.25,0],[0,0.5,0],[0,0.75,0],[1,0.25,0],[1,0.5,0],[1,0.75,0]];outlineConnect=0;fontColor=#232F3E;gradientColor=#F54749;gradientDirection=north;fillColor=#C7131F;strokeColor=#ffffff;dashed=0;verticalLabelPosition=bottom;verticalAlign=top;align=center;html=1;fontSize=12;fontStyle=0;aspect=fixed;shape=mxgraph.aws4.resourceIcon;resIcon=mxgraph.aws4.certificate_manager_3;" parent="124" vertex="1">
                    <mxGeometry x="26.75" y="373" width="49.75" height="49.75" as="geometry"/>
                </mxCell>
                <mxCell id="136" value="" style="rounded=1;arcSize=16;dashed=1;strokeColor=#F59D56;fillColor=none;gradientColor=none;dashPattern=8 4;strokeWidth=2;labelBackgroundColor=none;labelBorderColor=none;sketch=0;fontColor=#000066;container=0;" parent="1" vertex="1">
                    <mxGeometry x="964" y="354" width="121" height="122" as="geometry"/>
                </mxCell>
                <mxCell id="131" value="" style="outlineConnect=0;dashed=0;verticalLabelPosition=bottom;verticalAlign=top;align=center;html=1;shape=mxgraph.aws3.internet_3;fillColor=#d80073;labelBackgroundColor=none;labelBorderColor=none;sketch=0;strokeColor=#A50040;fontColor=#ffffff;" parent="1" vertex="1">
                    <mxGeometry x="260.75" y="202" width="78.5" height="54" as="geometry"/>
                </mxCell>
                <mxCell id="134" value="Fluent Bit" style="sketch=0;outlineConnect=0;fontColor=#232F3E;gradientColor=none;fillColor=#D45B07;strokeColor=none;dashed=0;verticalLabelPosition=bottom;verticalAlign=top;align=center;html=1;fontSize=12;fontStyle=0;aspect=fixed;pointerEvents=1;shape=mxgraph.aws4.container_1;" parent="1" vertex="1">
                    <mxGeometry x="1043" y="370.9" width="26" height="17.44" as="geometry"/>
                </mxCell>
                <mxCell id="133" value="NGINX" style="sketch=0;outlineConnect=0;fontColor=#232F3E;gradientColor=none;fillColor=#D45B07;strokeColor=none;dashed=0;verticalLabelPosition=bottom;verticalAlign=top;align=center;html=1;fontSize=12;fontStyle=0;aspect=fixed;pointerEvents=1;shape=mxgraph.aws4.container_1;direction=south;" parent="1" vertex="1">
                    <mxGeometry x="984.585" y="410.425" width="25.83" height="39" as="geometry"/>
                </mxCell>
                <mxCell id="146" style="edgeStyle=none;rounded=0;html=1;strokeColor=#000000;fontColor=#000000;endArrow=classic;endFill=1;entryX=0;entryY=0.75;entryDx=0;entryDy=0;entryPerimeter=0;" parent="1" source="134" target="144" edge="1">
                    <mxGeometry relative="1" as="geometry">
                        <mxPoint x="1076" y="444.81284815813126" as="sourcePoint"/>
                        <mxPoint x="1303.5" y="443.99523809523805" as="targetPoint"/>
                    </mxGeometry>
                </mxCell>
                <mxCell id="148" style="edgeStyle=none;rounded=0;html=1;strokeColor=#000000;fontColor=#000066;dashed=1;dashPattern=8 8;fillColor=#60a917;exitX=0.003;exitY=0.443;exitDx=0;exitDy=0;exitPerimeter=0;" parent="1" source="136" edge="1">
                    <mxGeometry relative="1" as="geometry">
                        <mxPoint x="962" y="406" as="sourcePoint"/>
                        <mxPoint x="698" y="375.2912087912089" as="targetPoint"/>
                        <Array as="points">
                            <mxPoint x="767" y="406"/>
                        </Array>
                    </mxGeometry>
                </mxCell>
                <mxCell id="154" style="edgeStyle=none;rounded=0;html=1;strokeColor=#000000;fontColor=#000000;endArrow=classic;endFill=1;exitX=1;exitY=0.5;exitDx=0;exitDy=0;exitPerimeter=0;startArrow=none;" parent="1" source="160" target="85" edge="1">
                    <mxGeometry relative="1" as="geometry">
                        <mxPoint x="421.5" y="508.0255334785197" as="sourcePoint"/>
                        <mxPoint x="671" y="508.1887167581258" as="targetPoint"/>
                    </mxGeometry>
                </mxCell>
                <mxCell id="162" value="HTTP" style="rounded=0;whiteSpace=wrap;html=1;fontSize=10;fillColor=#f5f5f5;strokeColor=#666666;fontColor=#333333;" parent="1" vertex="1">
                    <mxGeometry x="724" y="419.16999999999996" width="36" height="21.5" as="geometry"/>
                </mxCell>
                <mxCell id="178" value="NAT Gateway" style="outlineConnect=0;dashed=0;verticalLabelPosition=bottom;verticalAlign=top;align=center;html=1;shape=mxgraph.aws3.vpc_nat_gateway;fillColor=#F58534;gradientColor=none;fontColor=#000000;" parent="1" vertex="1">
                    <mxGeometry x="661" y="345" width="42" height="46" as="geometry"/>
                </mxCell>
                <mxCell id="181" value="NAT Gateway" style="outlineConnect=0;dashed=0;verticalLabelPosition=bottom;verticalAlign=top;align=center;html=1;shape=mxgraph.aws3.vpc_nat_gateway;fillColor=#F58534;gradientColor=none;fontColor=#000000;" parent="1" vertex="1">
                    <mxGeometry x="666" y="623" width="42" height="46" as="geometry"/>
                </mxCell>
                <mxCell id="183" value="Internet Gateway" style="outlineConnect=0;dashed=0;verticalLabelPosition=bottom;verticalAlign=top;align=center;html=1;shape=mxgraph.aws3.internet_gateway;fillColor=#F58534;gradientColor=none;fontColor=#000000;" parent="1" vertex="1">
                    <mxGeometry x="462" y="340.29999999999995" width="45" height="48.04" as="geometry"/>
                </mxCell>
                <mxCell id="187" style="edgeStyle=none;rounded=0;html=1;strokeColor=#000000;fontColor=#000000;endArrow=classic;endFill=1;" edge="1" parent="1" source="133" target="134">
                    <mxGeometry relative="1" as="geometry">
                        <mxPoint x="1079" y="389.63459183673467" as="sourcePoint"/>
                        <mxPoint x="1262" y="389.84000000000015" as="targetPoint"/>
                    </mxGeometry>
                </mxCell>
            </root>
        </mxGraphModel>
    </diagram>
</mxfile>